<svg width="592" height="228" viewBox="0 0 592 228" fill="none" xmlns="http://www.w3.org/2000/svg">
<path d="M50.6698 219.786L52.5803 155.067C52.6847 151.884 50.092 148.409 46.7423 147.722C44.8149 147.322 39.7726 147.204 37.5177 147.751C34.0782 148.665 33.5438 151.715 32.8801 154.56L30.9696 219.279C30.9696 219.279 34.6701 216.487 40.8941 216.555C47.3435 216.568 50.6698 219.786 50.6698 219.786Z" fill="#E7EFF2"/>
<path d="M30.8415 220.384C30.8685 219.51 30.8774 218.56 30.9044 217.686C30.9944 216.085 30.9912 214.428 31.0813 212.828C31.2164 210.427 31.2763 208.045 31.3933 205.57C31.6063 200.861 31.7261 196.096 31.9391 191.388C32.281 182.938 32.3713 159.316 32.6595 154.589C33.2031 146.643 49.4975 145.852 51.972 154.093C52.246 154.894 51.8805 167.849 51.8328 170.939L51.4434 184.451C51.1975 190.667 50.8582 196.827 50.519 202.987C50.3418 205.872 50.2399 208.738 50.138 211.604C50.018 214.396 50.0846 217.3 49.7208 220.072C49.6006 220.89 50.4944 221.621 51.2828 221.588C52.1272 221.503 53.034 220.926 52.9286 220.163C52.6514 217.704 52.8256 215.136 52.8493 212.604C52.8731 210.073 52.972 207.523 53.0529 204.899C53.2328 199.725 53.4127 194.551 53.6678 189.358C53.9857 181.467 54.436 173.465 54.1913 165.552L54.5869 153.38L55.7913 112.991C55.9083 110.516 54.578 108.313 52.6008 107.055C52.2096 106.755 51.8364 106.53 51.5385 106.287C50.401 105.536 49.131 104.897 47.822 104.425C45.2791 103.462 42.4505 102.964 39.7092 103.154C36.7994 103.307 34.1063 104.354 32.9181 107.01C32.8218 107.27 32.6503 107.549 32.5721 107.883C31.7509 109.424 31.3599 111.098 31.1194 112.734C30.8217 114.464 30.5993 116.176 30.5453 117.925C30.3051 121.535 30.2152 125.109 30.0683 128.775C29.7924 136.183 29.5918 143.572 29.3731 150.887C28.8965 165.683 28.5133 180.536 28.0368 195.333C27.7339 203.615 27.3559 211.915 27.2215 220.236C27.1255 222.469 30.8208 222.6 30.8415 220.384Z" fill="#875C1A"/>
<path d="M50.2043 142.19C49.9835 141.925 50.0223 141.757 49.7448 141.585C49.4494 141.339 49.0972 141.186 48.7272 140.957C48.0975 140.633 47.3933 140.326 46.7069 140.095C45.2416 139.576 43.6241 139.412 42.0425 139.399C40.5354 139.368 38.9328 139.599 37.4585 140.037C36.7124 140.218 36.0021 140.55 35.3664 140.864C34.8053 141.16 33.8533 141.471 33.6802 142.07C33.6026 142.408 33.8055 142.597 34.1397 142.675C34.7157 142.774 35.3723 142.216 35.8587 141.938C36.4944 141.625 37.148 141.386 37.8941 141.205C39.2192 140.803 40.6726 140.608 42.0871 140.582C43.5017 140.557 44.8954 140.775 46.1756 141.18C46.8441 141.336 47.5304 141.567 48.1601 141.891C48.5122 142.044 48.7719 142.14 49.124 142.293C49.4761 142.447 49.7 142.392 50.0342 142.47C50.2013 142.509 50.3147 142.322 50.2043 142.19Z" fill="#E7EFF2"/>
<path d="M51.6905 112.417C51.3054 111.797 50.6574 111.399 50.0841 110.984C49.3435 110.53 48.5283 110.094 47.731 109.733C46.0618 109.029 44.279 108.512 42.4753 108.238C39.6862 107.807 36.2518 108.644 34.2777 110.632C33.5818 111.357 34.6896 112.356 35.3287 111.724C37.0968 109.866 40.0443 109.306 42.5737 109.641C44.2101 109.877 45.751 110.374 47.3098 110.946C48.0145 111.25 48.7193 111.555 49.4419 111.934C50.072 112.256 50.6453 112.672 51.3142 112.826C51.574 112.921 51.8368 112.699 51.6905 112.417Z" fill="#E7EFF2"/>
<path d="M48.8336 156.366C48.7048 163.418 48.6334 170.377 48.5045 177.429C48.3381 186.305 47.8511 195.178 47.4398 204.034C47.2037 208.666 46.9496 213.223 46.7891 217.837C46.7251 218.563 47.9316 218.59 47.9956 217.865C48.3462 209.419 48.6787 200.898 48.9356 192.395C49.2105 183.967 49.5611 175.52 49.6668 167.054C49.6844 163.499 49.702 159.945 49.3991 156.388C49.3842 155.997 48.8188 155.975 48.8336 156.366Z" fill="#D8E5E5"/>
<path d="M45.6338 153.92C45.2363 155.909 45.4404 158.069 45.3634 160.059C45.3802 162.107 45.3788 164.079 45.3199 166.145C45.2778 170.257 45.2537 174.444 45.1359 178.575C44.976 186.818 44.6649 195.097 44.1845 203.338C43.8729 207.988 43.655 212.695 43.1922 217.381C43.1463 218.181 44.5219 218.247 44.5678 217.447C45.4349 200.909 46.2264 184.389 46.377 167.864C46.3816 165.576 46.3681 163.212 46.3727 160.923C46.3773 158.634 46.5906 156.216 46.066 154.054C46.1268 153.645 45.7126 153.586 45.6338 153.92Z" fill="#D8E5E5"/>
<path d="M39.6122 153.829C39.4023 155.931 39.4372 158.053 39.3784 160.118C39.3196 162.184 39.2789 164.324 39.2201 166.389C39.027 170.538 38.8338 174.687 38.4715 178.797C37.8979 186.982 37.0977 195.221 36.6933 203.445C36.4757 208.152 36.3335 212.841 36.2669 217.512C36.2211 218.312 37.5779 218.302 37.5482 217.521C37.2939 209.218 37.9643 200.774 38.5198 192.514C39.1508 184.237 39.8755 176.016 40.1862 167.736C40.2482 165.354 40.4039 163.029 40.3903 160.665C40.3949 158.376 40.4569 155.994 40.1411 153.703C40.2199 153.368 39.691 153.495 39.6122 153.829Z" fill="#D8E5E5"/>
<path d="M43.184 153.578C42.9741 155.68 43.0089 157.802 42.9501 159.867C42.8913 161.933 42.8506 164.073 42.7918 166.138C42.5987 170.287 42.4056 174.436 42.0432 178.546C41.4696 186.731 40.6694 194.97 40.265 203.194C40.0473 207.901 39.9052 212.59 39.8387 217.26C39.7928 218.06 41.1496 218.051 41.1199 217.269C40.8656 208.967 41.536 200.522 42.0915 192.263C42.7225 183.986 43.4472 175.765 43.7579 167.485C43.82 165.103 43.9756 162.778 43.9621 160.414C43.9666 158.125 44.0287 155.743 43.7129 153.452C43.7161 153.135 43.1872 153.262 43.184 153.578Z" fill="#D8E5E5"/>
<path d="M35.6563 156.07C35.6574 163.329 35.7916 170.476 35.4724 177.732C35.1254 185.862 34.4581 193.991 33.8844 202.175C33.509 207.551 33.1336 212.927 32.6646 218.246C32.6007 218.972 33.9002 219.055 33.9461 218.255C34.4966 208.656 35.2162 199.095 35.8604 189.553C36.3126 182.186 36.7649 174.819 36.8213 167.468C36.8601 163.672 36.8808 159.801 36.2214 156.093C36.131 155.72 35.6595 155.754 35.6563 156.07Z" fill="#D8E5E5"/>
<path d="M29.8994 129.15C30.2282 128.743 34.2121 126.925 39.1483 126.35M54.8982 131.95C50.746 126.534 44.4068 125.737 39.1483 126.35M39.1483 0V126.35" stroke="#0D0842" stroke-width="0.7"/>
<path d="M114.172 151.202C114.125 147.984 115.965 145.347 118.398 145.285L124.233 145.12C126.59 145.079 128.572 147.653 128.673 150.775L129.466 194.902L130.683 194.871C130.915 193.995 130.998 193.163 131.036 192.183L129.06 82.3053C128.967 78.3733 126.637 75.1737 123.882 75.2495L116.335 75.4285C113.579 75.5043 111.344 78.7412 111.437 82.6732L113.413 192.55C113.45 193.509 113.562 194.446 113.802 195.265L115.019 195.234L114.172 151.202Z" fill="#F3D2A1"/>
<path d="M114.424 151.417C114.376 148.198 116.213 145.56 118.642 145.497L124.468 145.33C126.823 145.288 128.802 147.862 128.903 150.984L129.715 194.875L131.327 194.808L130.016 125.039C129.922 121.106 127.595 117.907 124.843 117.983L117.307 118.165C114.555 118.242 112.324 121.48 112.418 125.413L113.729 195.182L115.342 195.115L114.424 151.417Z" fill="#F3D2A1"/>
<path d="M129.602 194.182L128.381 126.655C128.29 123.287 126.362 120.617 123.932 120.68L118.103 120.847C115.747 120.888 113.856 123.622 113.872 127.011L115.093 194.538C115.093 194.538 117.693 191.436 122.209 191.249C127.027 190.974 129.602 194.182 129.602 194.182Z" fill="#E7EFF2"/>
<path d="M127.04 119.016C126.944 121.466 127.171 123.904 127.225 126.311C127.28 128.718 127.529 131.231 127.832 133.647C128.286 138.522 128.687 143.494 128.893 148.361C129.425 158.221 129.46 168.064 129.269 177.972C129.198 183.565 128.954 189.127 128.71 194.69C128.633 196.65 131.644 196.587 131.722 194.626C132.504 174.775 132.713 154.928 130.829 135.202C130.59 132.445 130.253 129.635 129.689 126.891C129.37 125.529 128.997 124.264 128.678 122.903C128.358 121.542 128.061 120.255 127.59 118.937C127.481 118.565 127.006 118.622 127.04 119.016Z" fill="#F3D2A1"/>
<path d="M112.209 78.9157C112.486 78.753 112.688 78.6122 112.986 78.524L112.965 78.4495C112.688 78.6122 112.411 78.775 112.209 78.9157C112.156 79.0123 112.135 78.9378 112.209 78.9157Z" fill="#F3B953"/>
<path d="M113.639 77.1717C112.294 77.8847 111.47 79.2545 111.261 80.7689C110.967 82.5504 110.824 84.2881 110.681 86.0258C110.332 89.8426 110.08 93.7119 109.904 97.5594C109.617 105.478 109.729 113.361 109.916 121.222C110.05 129.18 110.41 137.072 110.447 144.978C110.505 152.957 110.714 160.893 111.118 168.934C111.344 173.311 111.515 177.785 111.913 182.193C112.074 184.408 112.333 186.675 112.494 188.89C112.677 191.179 112.807 193.565 113.367 195.745C113.774 197.404 116.08 196.897 116.17 195.256C116.322 193.273 116.076 191.325 115.927 189.43C115.756 187.46 115.682 185.543 115.587 183.551C115.342 179.664 115.098 175.777 114.929 171.868C114.515 164.072 114.253 156.233 114.162 148.424C114.094 140.689 113.875 132.998 113.732 125.286C113.491 117.52 113.272 109.83 113.355 102.051C113.4 97.7575 113.617 93.4942 113.91 89.209C114.041 87.1518 114.322 85.0508 114.507 82.8973C114.558 82.2364 114.587 81.501 114.659 80.9145C114.786 80.2317 114.664 79.54 115.157 78.9931C115.994 77.9428 114.78 76.5986 113.639 77.1717Z" fill="#F3D2A1"/>
<path d="M126.564 78.218C126.251 77.418 125.661 76.781 125.019 76.2407C124.377 75.7004 123.713 75.0854 122.965 74.7387C121.202 73.9619 119.186 73.99 117.267 74.0707C115.518 74.1821 113.943 74.8913 112.83 76.3564C111.897 77.6059 110.755 79.8097 111.903 81.2553C112.16 81.5848 112.725 81.5799 113.002 81.417C114.086 80.6906 114.004 79.0111 114.831 77.9552C115.69 76.7277 116.948 76.5992 118.302 76.5233C119.73 76.4254 121.255 76.3802 122.677 77.0957C123.831 77.7278 124.861 79.046 126.321 78.7766C126.47 78.7325 126.607 78.3674 126.564 78.218Z" fill="#F3D2A1"/>
<path d="M120.762 76.6151C122.174 76.1262 123.852 77.0948 124.732 78.1327C125.872 79.499 126.141 81.521 126.268 83.3416C126.635 87.9194 126.776 92.5626 126.992 97.184C127.392 106.597 127.544 116.002 127.545 125.45C127.568 128.028 127.515 130.627 127.538 133.205C127.512 134.504 127.561 135.782 127.535 137.082C127.559 137.721 127.606 138.434 127.706 139.051C127.828 139.743 128.176 140.369 128.32 141.135C128.442 141.826 129.565 141.744 129.713 141.136C129.862 140.528 130.108 139.972 130.256 139.364C130.404 138.756 130.433 138.021 130.409 137.382C130.435 136.082 130.386 134.804 130.412 133.505C130.411 131.001 130.335 128.52 130.356 126.091C130.279 121.107 130.223 116.197 130.07 111.234C129.971 106.175 129.796 101.138 129.6 96.0266C129.523 93.5452 129.372 91.0857 129.22 88.6261C129.112 86.3154 129.004 84.0048 128.669 81.7595C128.335 79.5143 127.579 77.2293 125.822 75.718C124.11 74.3555 121.959 74.008 120.14 75.3411C119.505 75.6863 119.931 76.8551 120.762 76.6151Z" fill="#F3D2A1"/>
<path d="M129.382 129.521C129.751 128.279 129.509 126.893 129.311 125.656C129.039 124.441 128.573 123.122 127.874 122.114C126.153 119.547 123.478 118.718 120.634 118.425C119.212 118.278 117.79 118.131 116.424 118.454C114.908 118.821 113.78 119.963 112.942 121.263C111.455 123.402 109.242 127.78 111.72 129.881C112.149 130.24 112.886 130.265 113.204 129.685C113.5 129.031 113.638 128.667 113.763 127.982C113.857 127.469 114.003 126.859 114.172 126.323C114.488 125.178 115.017 124.212 115.622 123.224C116.121 122.429 116.685 121.858 117.603 121.667C118.692 121.507 119.868 121.646 120.948 121.732C122.958 121.947 124.585 122.519 125.747 124.281C126.812 125.99 126.972 128.209 128.143 129.725C128.445 130.202 129.161 130.153 129.382 129.521Z" fill="#F3D2A1"/>
<path d="M126.388 114.363C126.49 113.604 126.579 112.525 126.137 111.847C126.317 111.632 126.423 111.438 126.336 111.14C125.846 109.747 124.435 109.356 123.194 108.995C121.879 108.657 120.555 108.564 119.199 108.641C117.919 108.697 116.34 108.842 115.234 109.493C113.702 110.352 114.397 112.17 114.715 113.533C114.89 114.129 115.534 114.667 116.174 114.639C117.604 114.539 119.152 114.566 120.551 114.637C121.95 114.708 123.52 114.809 124.878 115.297C125.435 115.537 126.265 115.048 126.388 114.363Z" fill="#E7EFF2"/>
<path d="M116.237 78.6923C115.788 79.3885 115.847 80.4217 115.764 81.2536C115.726 82.2343 115.665 83.1406 115.702 84.0994C115.678 85.9645 115.698 87.9785 115.998 89.8304C116.241 91.2138 118.243 90.7931 118.269 89.4928C118.293 87.6277 117.994 85.7758 117.867 83.9545C117.777 83.092 117.74 82.1332 117.65 81.2707C117.582 80.4827 117.545 79.5239 117.154 78.749C116.947 78.3244 116.451 78.307 116.237 78.6923Z" fill="#E7EFF2"/>
<path d="M119.729 78.7746C118.815 81.2229 118.991 84.323 119.411 86.8668C119.533 87.5586 119.933 88.0882 120.654 88.0397C121.225 88.0349 121.868 87.4434 121.844 86.8041C121.697 85.473 121.53 84.0675 121.459 82.7145C121.388 81.3615 121.317 80.0085 121.021 78.7213C120.824 78.0514 119.974 78.2183 119.729 78.7746Z" fill="#E7EFF2"/>
<path d="M123.044 78.7533C122.609 80.3339 122.833 82.2077 122.819 83.8277C122.812 84.6376 122.902 85.5001 122.917 86.3845C122.932 87.2689 122.925 88.0788 123.338 88.9281C123.664 89.4797 124.58 89.5364 124.879 88.884C125.209 88.0608 125.163 87.3472 125.17 86.5372C125.155 85.6528 125.14 84.7685 125.028 83.8316C124.869 82.181 124.969 80.294 124.358 78.7749C124.064 78.0526 123.245 78.0484 123.044 78.7533Z" fill="#E7EFF2"/>
<path d="M124.143 125.945C124.056 128.151 124.262 130.514 124.348 132.751C124.412 134.913 124.551 137.053 124.615 139.215C124.765 143.613 125.013 148.065 125.163 152.463C125.516 161.164 125.471 169.899 125.651 178.569C125.729 183.554 125.784 188.464 125.764 193.397C125.769 194.526 127.485 194.514 127.48 193.385C127.428 184.597 127.279 175.756 126.957 166.885C126.807 162.486 126.56 158.035 126.41 153.637C126.26 149.238 126.11 144.84 125.862 140.389C125.71 137.929 125.559 135.469 125.407 133.01C125.277 130.624 125.201 128.143 124.844 125.823C124.788 125.355 124.109 125.551 124.143 125.945Z" fill="#D8E5E5"/>
<path d="M121.298 122.912C121.782 140.944 122.265 158.976 122.575 176.977C122.674 182.036 122.774 187.095 122.873 192.155C122.878 193.284 124.572 193.197 124.589 192.143C124.181 174.089 123.547 156.101 122.815 138.06C122.619 132.949 122.369 127.933 122.097 122.843C121.965 122.396 121.242 122.444 121.298 122.912Z" fill="#D8E5E5"/>
<path d="M118.336 124.369C117.806 126.46 118.087 128.802 118.129 130.889C118.193 133.051 118.257 135.213 118.321 137.376C118.418 141.87 118.59 146.343 118.686 150.838C118.911 159.657 119.082 168.572 119.306 177.391C119.405 182.45 119.483 187.435 119.582 192.494C119.609 193.698 121.401 193.664 121.373 192.46C121.053 174.705 120.485 156.94 119.744 139.145C119.667 136.663 119.516 134.203 119.439 131.722C119.39 130.444 119.363 129.24 119.238 127.984C119.114 126.728 119.087 125.524 118.736 124.334C118.692 124.185 118.443 124.176 118.336 124.369Z" fill="#D8E5E5"/>
<path d="M116.173 128.008C116.081 129.085 115.945 130.013 115.928 131.067C115.911 132.122 115.819 133.199 115.824 134.328C115.791 136.437 115.758 138.547 115.724 140.656C115.711 144.779 115.676 148.827 115.814 152.906C115.96 161.182 116.279 169.489 116.674 177.774C116.837 182.492 117.096 187.263 117.41 191.937C117.424 192.821 118.817 192.822 118.705 191.885C117.667 175.306 117.374 158.754 116.983 142.149C116.929 139.742 116.897 137.41 116.767 135.024C116.74 133.821 116.712 132.617 116.707 131.488C116.68 130.285 116.577 129.103 116.475 127.921C116.453 127.847 116.204 127.838 116.173 128.008Z" fill="#D8E5E5"/>
<path d="M109.554 101.5C109.554 101.5 113.774 98.2759 119.149 97.82M129.649 101.5C126.187 98.3039 122.45 97.5399 119.149 97.82M119.149 0.699951V97.82" stroke="#0D0842" stroke-width="0.7"/>
<path d="M174.945 218.625L168.645 145.555C168.301 141.97 168.196 134.948 171.602 134.611L182.773 133.626C186.179 133.289 189.602 140.074 189.945 143.659L195.67 216.675C195.67 216.675 191.568 213.832 185.028 214.298C178.204 214.783 174.945 218.625 174.945 218.625Z" fill="#E7EFF2"/>
<path d="M186.123 90.9148C183.554 88.244 178.371 86.4206 174.2 86.8067C170.788 87.1399 163.067 91.3841 162.391 95.4215C162.145 96.0087 162.008 96.7783 161.952 97.3523C161.771 98.8849 161.781 100.404 161.702 102.025C161.73 106.583 161.948 111.128 162.262 115.667C162.832 125.318 163.783 134.942 164.353 144.593C164.953 153.291 165.75 162.071 166.635 170.75C167.507 179.24 168.284 187.736 169.061 196.232C169.47 200.764 170.061 205.188 170.754 209.7C170.934 210.922 171.107 212.05 171.382 213.266C171.388 213.361 171.401 213.55 171.408 213.644C171.564 215.914 171.816 218.176 172.631 220.305C172.981 221.23 173.848 221.36 174.752 220.631C175.112 220.321 175.191 218.701 175.165 218.323L168.936 147.408C168.871 146.462 168.799 145.422 168.734 144.477C168.803 141.337 171.836 138.275 177.042 136.296C182.9 134.082 187.621 138.883 188.727 141.086C189.054 143.059 189.387 145.125 189.714 147.098L190.951 160.882C190.964 161.071 190.971 161.166 190.984 161.355C191.232 164.948 191.486 168.635 191.829 172.222C192.42 179.401 193.106 186.573 193.697 193.753C194.072 197.812 194.359 201.972 194.64 206.038C194.933 210.292 195.031 214.466 195.514 218.707C195.726 220.403 198.094 220.142 198.173 218.522C198.203 214.814 197.942 211.032 197.681 207.25C197.427 203.563 197.172 199.875 196.823 196.195C196.225 188.921 195.54 181.748 194.942 174.474C194.352 167.295 193.951 160.103 193.455 152.917C193.357 151.499 193.171 150.182 192.978 148.77C193.355 147.319 193.136 145.529 193.031 144.016C192.813 142.226 192.499 140.443 192.368 138.552C191.967 134.115 192.046 129.739 191.74 125.295C191.126 116.407 190.032 107.458 189.039 98.5968C188.794 96.4288 188.454 94.2674 187.279 92.4493C186.961 91.9964 186.644 91.5435 186.333 91.1852C186.231 91.0973 186.225 91.0027 186.123 90.9148Z" fill="#55E88C"/>
<path d="M171.554 143.515C171.882 152.422 173.367 161.254 174.171 170.035C174.615 175.041 174.86 179.964 175.112 184.982C175.357 189.906 175.699 194.823 175.944 199.747C176.241 205.427 176.636 211.1 176.933 216.78C176.986 217.537 178.239 217.454 178.186 216.698C177.593 206.762 177 196.827 176.503 186.886C175.936 177.329 175.459 167.671 174.121 158.165C173.394 153.273 172.57 148.387 172.042 143.578C172.016 143.199 171.534 143.231 171.554 143.515Z" fill="#D8E5E5"/>
<path d="M174.926 138.718C174.717 141.297 175.081 143.743 175.355 146.289C175.622 148.742 175.889 151.194 176.066 153.747C176.607 158.746 177.052 163.751 177.4 168.763C178.276 178.585 178.966 188.513 179.745 198.341C180.146 204.11 180.444 209.79 181.037 215.545C181.083 216.207 182.143 216.137 182.097 215.475C181.587 205.345 180.692 195.239 179.892 185.128C179.113 175.3 178.327 165.377 177.354 155.562C177.061 152.732 176.864 149.895 176.57 147.064C176.284 144.328 176.087 141.492 175.318 138.787C175.298 138.504 175.009 138.523 174.926 138.718Z" fill="#D8E5E5"/>
<path d="M178.771 138.069C179.378 148.193 180.563 158.279 181.363 168.391C182.157 178.408 182.751 188.343 183.255 198.379C183.559 204.154 183.767 209.934 184.072 215.709C184.125 216.465 185.378 216.383 185.326 215.627C184.407 195.454 183.489 175.281 181.414 155.184C180.82 149.428 180.129 143.679 179.253 138.037C179.137 137.76 178.751 137.785 178.771 138.069Z" fill="#D8E5E5"/>
<path d="M182.123 138.498C182.204 141.058 182.767 143.585 183.04 146.132C183.313 148.679 183.683 151.219 183.957 153.766C184.49 158.67 185.024 163.575 185.365 168.492C186.144 178.32 186.64 188.262 187.226 198.102C187.517 203.688 187.911 209.361 188.298 214.941C188.357 215.792 189.705 215.703 189.646 214.851C188.165 194.905 187.751 174.984 185.5 155.089C185.207 152.258 184.817 149.434 184.428 146.61C184.045 143.881 183.649 140.962 182.887 138.353C182.662 137.892 182.09 138.025 182.123 138.498Z" fill="#D8E5E5"/>
<path d="M186.519 140.188C186.401 142.665 186.675 145.212 186.852 147.765C187.023 150.224 187.201 152.777 187.468 155.229C187.907 160.14 188.352 165.145 188.694 170.062C189.468 179.796 190.249 189.624 190.927 199.363C191.117 202.106 191.308 204.848 191.402 207.596C191.501 209.015 191.497 210.345 191.595 211.763C191.694 213.182 191.696 214.606 191.988 216.012C192.111 216.384 192.689 216.346 192.76 215.962C193.077 213.566 192.707 211.026 192.639 208.655C192.468 206.197 192.387 203.637 192.216 201.179C191.873 196.262 191.525 191.25 191.183 186.333C190.395 176.411 189.615 166.583 188.731 156.666C188.54 153.924 188.253 151.188 187.966 148.452C187.679 145.717 187.578 142.873 186.995 140.062C186.975 139.778 186.596 139.898 186.519 140.188Z" fill="#D8E5E5"/>
<path d="M162.417 117.95C162.417 117.95 168.214 111.856 176.417 111.582M191.117 117.95C185.875 112.951 180.802 111.435 176.417 111.582M176.417 111.582V0" stroke="#0D0842" stroke-width="0.7"/>
<path d="M246.669 219.786L248.579 155.067C248.684 151.884 246.091 148.409 242.741 147.722C240.814 147.322 235.772 147.204 233.517 147.751C230.077 148.665 229.543 151.715 228.879 154.56L226.969 219.279C226.969 219.279 230.669 216.487 236.893 216.555C243.343 216.568 246.669 219.786 246.669 219.786Z" fill="#E7EFF2"/>
<path d="M226.841 220.384C226.868 219.51 226.876 218.56 226.903 217.686C226.993 216.085 226.99 214.428 227.08 212.828C227.215 210.427 227.275 208.045 227.392 205.57C227.605 200.861 227.725 196.096 227.938 191.388C228.28 182.938 228.37 159.316 228.659 154.589C229.202 146.643 245.496 145.852 247.971 154.093C248.245 154.894 247.88 167.849 247.832 170.939L247.442 184.451C247.196 190.667 246.857 196.827 246.518 202.987C246.341 205.872 246.239 208.738 246.137 211.604C246.017 214.396 246.084 217.3 245.72 220.072C245.6 220.89 246.493 221.621 247.282 221.588C248.126 221.503 249.033 220.926 248.928 220.163C248.65 217.704 248.825 215.136 248.848 212.604C248.872 210.073 248.971 207.523 249.052 204.899C249.232 199.725 249.412 194.551 249.667 189.358C249.985 181.467 250.435 173.465 250.19 165.552L250.586 153.38L251.79 112.991C251.907 110.516 250.577 108.313 248.6 107.055C248.209 106.755 247.835 106.53 247.538 106.287C246.4 105.536 245.13 104.897 243.821 104.425C241.278 103.462 238.45 102.964 235.708 103.154C232.798 103.307 230.105 104.354 228.917 107.01C228.821 107.27 228.649 107.549 228.571 107.883C227.75 109.424 227.359 111.098 227.118 112.734C226.821 114.464 226.598 116.176 226.544 117.925C226.304 121.535 226.214 125.109 226.067 128.775C225.791 136.183 225.591 143.572 225.372 150.887C224.896 165.683 224.512 180.536 224.036 195.333C223.733 203.615 223.355 211.915 223.221 220.236C223.125 222.469 226.82 222.6 226.841 220.384Z" fill="#875C1A"/>
<path d="M246.203 142.19C245.983 141.925 246.021 141.757 245.744 141.585C245.448 141.339 245.096 141.186 244.726 140.957C244.097 140.633 243.392 140.326 242.706 140.095C241.241 139.576 239.623 139.412 238.041 139.399C236.534 139.368 234.932 139.599 233.458 140.037C232.711 140.218 232.001 140.55 231.365 140.864C230.804 141.16 229.852 141.471 229.679 142.07C229.602 142.408 229.804 142.597 230.139 142.675C230.715 142.774 231.371 142.216 231.858 141.938C232.493 141.625 233.147 141.386 233.893 141.205C235.218 140.803 236.672 140.608 238.086 140.582C239.501 140.557 240.894 140.775 242.175 141.18C242.843 141.336 243.529 141.567 244.159 141.891C244.511 142.044 244.771 142.14 245.123 142.293C245.475 142.447 245.699 142.392 246.033 142.47C246.2 142.509 246.314 142.322 246.203 142.19Z" fill="#E7EFF2"/>
<path d="M247.69 112.417C247.304 111.797 246.656 111.399 246.083 110.984C245.343 110.53 244.527 110.094 243.73 109.733C242.061 109.029 240.278 108.512 238.474 108.238C235.685 107.807 232.251 108.644 230.277 110.632C229.581 111.357 230.689 112.356 231.328 111.724C233.096 109.866 236.043 109.306 238.573 109.641C240.209 109.877 241.75 110.374 243.309 110.946C244.014 111.25 244.718 111.555 245.441 111.934C246.071 112.256 246.644 112.672 247.313 112.826C247.573 112.921 247.836 112.699 247.69 112.417Z" fill="#E7EFF2"/>
<path d="M244.833 156.366C244.705 163.418 244.633 170.377 244.504 177.429C244.338 186.305 243.851 195.178 243.44 204.034C243.203 208.666 242.949 213.223 242.789 217.837C242.725 218.563 243.931 218.59 243.995 217.865C244.346 209.419 244.678 200.898 244.935 192.395C245.21 183.967 245.561 175.52 245.667 167.054C245.684 163.499 245.702 159.945 245.399 156.388C245.384 155.997 244.819 155.975 244.833 156.366Z" fill="#D8E5E5"/>
<path d="M241.633 153.92C241.235 155.909 241.439 158.069 241.362 160.059C241.379 162.107 241.378 164.079 241.319 166.145C241.277 170.257 241.253 174.444 241.135 178.575C240.975 186.818 240.664 195.097 240.184 203.338C239.872 207.988 239.654 212.695 239.191 217.381C239.145 218.181 240.521 218.247 240.567 217.447C241.434 200.909 242.225 184.389 242.376 167.864C242.381 165.576 242.367 163.212 242.372 160.923C242.376 158.634 242.59 156.216 242.065 154.054C242.126 153.645 241.712 153.586 241.633 153.92Z" fill="#D8E5E5"/>
<path d="M235.612 153.829C235.402 155.931 235.437 158.053 235.378 160.118C235.319 162.184 235.279 164.324 235.22 166.389C235.027 170.538 234.834 174.687 234.471 178.797C233.898 186.982 233.097 195.221 232.693 203.445C232.475 208.152 232.333 212.841 232.267 217.512C232.221 218.312 233.578 218.302 233.548 217.521C233.294 209.218 233.964 200.774 234.52 192.514C235.151 184.237 235.875 176.016 236.186 167.736C236.248 165.354 236.404 163.029 236.39 160.665C236.395 158.376 236.457 155.994 236.141 153.703C236.22 153.368 235.691 153.495 235.612 153.829Z" fill="#D8E5E5"/>
<path d="M239.183 153.578C238.973 155.68 239.008 157.802 238.949 159.867C238.89 161.933 238.849 164.073 238.791 166.138C238.597 170.287 238.404 174.436 238.042 178.546C237.468 186.731 236.668 194.97 236.264 203.194C236.046 207.901 235.904 212.59 235.837 217.26C235.792 218.06 237.148 218.051 237.119 217.269C236.864 208.967 237.535 200.522 238.09 192.263C238.721 183.986 239.446 175.765 239.757 167.485C239.819 165.103 239.974 162.778 239.961 160.414C239.965 158.125 240.027 155.743 239.712 153.452C239.715 153.135 239.186 153.262 239.183 153.578Z" fill="#D8E5E5"/>
<path d="M231.656 156.07C231.657 163.329 231.791 170.476 231.472 177.732C231.125 185.862 230.457 193.991 229.884 202.175C229.508 207.551 229.133 212.927 228.664 218.246C228.6 218.972 229.899 219.055 229.945 218.255C230.496 208.656 231.216 199.095 231.86 189.553C232.312 182.186 232.764 174.819 232.821 167.468C232.859 163.672 232.88 159.801 232.221 156.093C232.13 155.72 231.659 155.754 231.656 156.07Z" fill="#D8E5E5"/>
<path d="M225.899 129.15C226.228 128.743 230.212 126.925 235.148 126.35M250.898 131.95C246.745 126.534 240.406 125.737 235.148 126.35M235.148 0V126.35" stroke="#0D0842" stroke-width="0.7"/>
<path d="M310.172 151.202C310.125 147.984 311.965 145.347 314.398 145.285L320.233 145.12C322.59 145.079 324.572 147.653 324.673 150.775L325.466 194.902L326.683 194.871C326.916 193.995 326.998 193.163 327.037 192.183L325.06 82.3053C324.967 78.3733 322.638 75.1737 319.882 75.2495L312.335 75.4285C309.58 75.5043 307.344 78.7412 307.437 82.6732L309.414 192.55C309.45 193.509 309.562 194.446 309.803 195.265L311.019 195.234L310.172 151.202Z" fill="#F3D2A1"/>
<path d="M310.424 151.417C310.376 148.198 312.213 145.56 314.642 145.497L320.469 145.33C322.823 145.288 324.803 147.862 324.903 150.984L325.715 194.875L327.327 194.808L326.016 125.039C325.922 121.106 323.595 117.907 320.843 117.983L313.308 118.165C310.556 118.242 308.324 121.48 308.418 125.413L309.73 195.182L311.342 195.115L310.424 151.417Z" fill="#F3D2A1"/>
<path d="M325.602 194.182L324.381 126.655C324.29 123.287 322.363 120.617 319.932 120.68L314.103 120.847C311.747 120.888 309.856 123.622 309.872 127.011L311.094 194.538C311.094 194.538 313.693 191.436 318.21 191.249C323.027 190.974 325.602 194.182 325.602 194.182Z" fill="#E7EFF2"/>
<path d="M323.041 119.016C322.944 121.466 323.171 123.904 323.226 126.311C323.28 128.718 323.529 131.231 323.832 133.647C324.287 138.522 324.688 143.494 324.894 148.361C325.426 158.221 325.461 168.064 325.269 177.972C325.198 183.565 324.954 189.127 324.71 194.69C324.633 196.65 327.645 196.587 327.722 194.626C328.504 174.775 328.714 154.928 326.83 135.202C326.59 132.445 326.253 129.635 325.69 126.891C325.371 125.529 324.998 124.264 324.678 122.903C324.359 121.542 324.061 120.255 323.591 118.937C323.481 118.565 323.006 118.622 323.041 119.016Z" fill="#F3D2A1"/>
<path d="M308.209 78.9157C308.486 78.753 308.688 78.6122 308.986 78.524L308.965 78.4495C308.688 78.6122 308.411 78.775 308.209 78.9157C308.156 79.0123 308.135 78.9378 308.209 78.9157Z" fill="#F3B953"/>
<path d="M309.639 77.1717C308.294 77.8847 307.469 79.2545 307.261 80.7689C306.967 82.5504 306.824 84.2881 306.681 86.0258C306.332 89.8426 306.08 93.7119 305.904 97.5594C305.617 105.478 305.729 113.361 305.916 121.222C306.05 129.18 306.41 137.072 306.446 144.978C306.505 152.957 306.714 160.893 307.118 168.934C307.343 173.311 307.515 177.785 307.913 182.193C308.074 184.408 308.333 186.675 308.494 188.89C308.677 191.179 308.807 193.565 309.367 195.745C309.774 197.404 312.08 196.897 312.169 195.256C312.322 193.273 312.076 191.325 311.927 189.43C311.756 187.46 311.682 185.543 311.587 183.551C311.342 179.664 311.098 175.777 310.929 171.868C310.515 164.072 310.252 156.233 310.162 148.424C310.094 140.689 309.875 132.998 309.732 125.286C309.491 117.52 309.272 109.83 309.355 102.051C309.399 97.7575 309.617 93.4942 309.91 89.209C310.041 87.1518 310.322 85.0508 310.506 82.8973C310.557 82.2364 310.586 81.501 310.659 80.9145C310.785 80.2317 310.663 79.54 311.157 78.9931C311.994 77.9428 310.779 76.5986 309.639 77.1717Z" fill="#F3D2A1"/>
<path d="M322.564 78.218C322.251 77.418 321.662 76.781 321.019 76.2407C320.377 75.7004 319.713 75.0854 318.965 74.7387C317.202 73.9619 315.186 73.99 313.267 74.0707C311.519 74.1821 309.943 74.8913 308.83 76.3564C307.897 77.6059 306.755 79.8097 307.903 81.2553C308.16 81.5848 308.725 81.5799 309.002 81.417C310.087 80.6906 310.004 79.0111 310.832 77.9552C311.69 76.7277 312.948 76.5992 314.302 76.5233C315.73 76.4254 317.255 76.3802 318.677 77.0957C319.832 77.7278 320.861 79.046 322.321 78.7766C322.47 78.7325 322.607 78.3674 322.564 78.218Z" fill="#F3D2A1"/>
<path d="M316.762 76.6151C318.175 76.1262 319.853 77.0948 320.733 78.1327C321.873 79.499 322.141 81.521 322.269 83.3416C322.636 87.9194 322.776 92.5626 322.992 97.184C323.393 106.597 323.545 116.002 323.546 125.45C323.568 128.028 323.516 130.627 323.539 133.205C323.512 134.504 323.561 135.782 323.535 137.082C323.56 137.721 323.606 138.434 323.706 139.051C323.828 139.743 324.177 140.369 324.321 141.135C324.443 141.826 325.566 141.744 325.714 141.136C325.862 140.528 326.108 139.972 326.256 139.364C326.405 138.756 326.434 138.021 326.409 137.382C326.435 136.082 326.386 134.804 326.413 133.505C326.412 131.001 326.335 128.52 326.356 126.091C326.279 121.107 326.224 116.197 326.071 111.234C325.972 106.175 325.797 101.138 325.6 96.0266C325.524 93.5452 325.372 91.0857 325.22 88.6261C325.112 86.3154 325.004 84.0048 324.67 81.7595C324.335 79.5143 323.579 77.2293 321.823 75.718C320.11 74.3555 317.959 74.008 316.141 75.3411C315.505 75.6863 315.932 76.8551 316.762 76.6151Z" fill="#F3D2A1"/>
<path d="M325.383 129.521C325.751 128.279 325.51 126.893 325.312 125.656C325.039 124.441 324.574 123.122 323.875 122.114C322.153 119.547 319.478 118.718 316.634 118.425C315.212 118.278 313.79 118.131 312.424 118.454C310.908 118.821 309.781 119.963 308.942 121.263C307.456 123.402 305.242 127.78 307.72 129.881C308.149 130.24 308.887 130.265 309.205 129.685C309.501 129.031 309.638 128.667 309.763 127.982C309.857 127.469 310.004 126.859 310.173 126.323C310.488 125.178 311.018 124.212 311.623 123.224C312.121 122.429 312.685 121.858 313.603 121.667C314.693 121.507 315.869 121.646 316.948 121.732C318.958 121.947 320.585 122.519 321.747 124.281C322.813 125.99 322.972 128.209 324.144 129.725C324.445 130.202 325.161 130.153 325.383 129.521Z" fill="#F3D2A1"/>
<path d="M322.389 114.363C322.491 113.604 322.58 112.525 322.138 111.847C322.318 111.632 322.423 111.438 322.336 111.14C321.847 109.747 320.435 109.356 319.195 108.995C317.879 108.657 316.555 108.564 315.2 108.641C313.919 108.697 312.34 108.842 311.234 109.493C309.702 110.352 310.397 112.17 310.716 113.533C310.89 114.129 311.534 114.667 312.175 114.639C313.604 114.539 315.152 114.566 316.551 114.637C317.95 114.708 319.52 114.809 320.879 115.297C321.436 115.537 322.265 115.048 322.389 114.363Z" fill="#E7EFF2"/>
<path d="M312.237 78.6923C311.788 79.3885 311.846 80.4217 311.764 81.2536C311.725 82.2343 311.665 83.1406 311.702 84.0994C311.678 85.9645 311.698 87.9785 311.997 89.8304C312.241 91.2138 314.243 90.7931 314.269 89.4928C314.293 87.6277 313.993 85.7758 313.866 83.9545C313.776 83.092 313.74 82.1332 313.649 81.2707C313.581 80.4827 313.544 79.5239 313.153 78.749C312.946 78.3244 312.451 78.307 312.237 78.6923Z" fill="#E7EFF2"/>
<path d="M315.73 78.7746C314.815 81.2229 314.991 84.323 315.411 86.8668C315.533 87.5586 315.934 88.0882 316.655 88.0397C317.225 88.0349 317.868 87.4434 317.844 86.8041C317.698 85.473 317.53 84.0675 317.459 82.7145C317.388 81.3615 317.318 80.0085 317.021 78.7213C316.824 78.0514 315.975 78.2183 315.73 78.7746Z" fill="#E7EFF2"/>
<path d="M319.044 78.7533C318.609 80.3339 318.833 82.2077 318.819 83.8277C318.812 84.6376 318.902 85.5001 318.917 86.3845C318.932 87.2689 318.925 88.0788 319.338 88.9281C319.664 89.4797 320.58 89.5364 320.879 88.884C321.209 88.0608 321.163 87.3472 321.17 86.5372C321.155 85.6528 321.14 84.7685 321.028 83.8316C320.869 82.181 320.969 80.294 320.358 78.7749C320.064 78.0526 319.245 78.0484 319.044 78.7533Z" fill="#E7EFF2"/>
<path d="M320.143 125.945C320.057 128.151 320.262 130.514 320.348 132.751C320.412 134.913 320.551 137.053 320.615 139.215C320.765 143.613 321.013 148.065 321.163 152.463C321.517 161.164 321.471 169.899 321.652 178.569C321.729 183.554 321.784 188.464 321.764 193.397C321.769 194.526 323.485 194.514 323.48 193.385C323.428 184.597 323.279 175.756 322.957 166.885C322.807 162.486 322.56 158.035 322.41 153.637C322.26 149.238 322.11 144.84 321.862 140.389C321.711 137.929 321.559 135.469 321.407 133.01C321.277 130.624 321.201 128.143 320.845 125.823C320.788 125.355 320.109 125.551 320.143 125.945Z" fill="#D8E5E5"/>
<path d="M317.299 122.912C317.782 140.944 318.265 158.976 318.576 176.977C318.675 182.036 318.774 187.095 318.873 192.155C318.878 193.284 320.573 193.197 320.589 192.143C320.182 174.089 319.547 156.101 318.816 138.06C318.619 132.949 318.369 127.933 318.097 122.843C317.966 122.396 317.243 122.444 317.299 122.912Z" fill="#D8E5E5"/>
<path d="M314.337 124.369C313.807 126.46 314.088 128.802 314.13 130.889C314.194 133.051 314.258 135.213 314.322 137.376C314.419 141.87 314.591 146.343 314.687 150.838C314.912 159.657 315.083 168.572 315.307 177.391C315.406 182.45 315.484 187.435 315.583 192.494C315.61 193.698 317.402 193.664 317.374 192.46C317.054 174.705 316.486 156.94 315.745 139.145C315.668 136.663 315.517 134.203 315.44 131.722C315.391 130.444 315.364 129.24 315.239 127.984C315.115 126.728 315.088 125.524 314.737 124.334C314.693 124.185 314.444 124.176 314.337 124.369Z" fill="#D8E5E5"/>
<path d="M312.173 128.008C312.081 129.085 311.945 130.013 311.928 131.067C311.911 132.122 311.819 133.199 311.825 134.328C311.791 136.437 311.758 138.547 311.724 140.656C311.711 144.779 311.676 148.827 311.814 152.906C311.96 161.182 312.28 169.489 312.675 177.774C312.837 182.492 313.097 187.263 313.41 191.937C313.425 192.821 314.817 192.822 314.705 191.885C313.667 175.306 313.374 158.754 312.984 142.149C312.929 139.742 312.897 137.41 312.767 135.024C312.74 133.821 312.713 132.617 312.707 131.488C312.68 130.285 312.577 129.103 312.475 127.921C312.453 127.847 312.205 127.838 312.173 128.008Z" fill="#D8E5E5"/>
<path d="M305.555 101.5C305.555 101.5 309.775 98.2759 315.15 97.82M325.65 101.5C322.187 98.3039 318.451 97.5399 315.15 97.82M315.15 0.699951V97.82" stroke="#0D0842" stroke-width="0.7"/>
<path d="M370.946 218.625L364.646 145.555C364.302 141.97 364.197 134.949 367.602 134.611L378.774 133.626C382.179 133.289 385.602 140.074 385.946 143.659L391.671 216.675C391.671 216.675 387.569 213.833 381.029 214.298C374.204 214.784 370.946 218.625 370.946 218.625Z" fill="#E7EFF2"/>
<path d="M382.123 90.915C379.553 88.2442 374.371 86.4208 370.199 86.807C366.788 87.1401 359.066 91.3843 358.391 95.4217C358.145 96.0089 358.007 96.7786 357.951 97.3525C357.771 98.8852 357.78 100.405 357.701 102.025C357.73 106.584 357.948 111.129 358.261 115.667C358.832 125.318 359.782 134.942 360.353 144.593C360.953 153.292 361.75 162.071 362.635 170.75C363.507 179.24 364.284 187.736 365.061 196.232C365.469 200.764 366.061 205.188 366.753 209.7C366.933 210.923 367.106 212.051 367.381 213.267C367.388 213.361 367.401 213.55 367.407 213.645C367.564 215.914 367.815 218.177 368.63 220.305C368.98 221.23 369.848 221.36 370.752 220.632C371.112 220.322 371.191 218.701 371.165 218.323L364.936 147.408C364.87 146.463 364.799 145.423 364.733 144.477C364.803 141.337 367.836 138.275 373.042 136.297C378.9 134.083 383.62 138.884 384.726 141.086C385.053 143.059 385.387 145.126 385.713 147.098L386.951 160.882C386.964 161.071 386.97 161.166 386.984 161.355C387.231 164.948 387.486 168.636 387.829 172.222C388.42 179.401 389.105 186.574 389.696 193.753C390.072 197.812 390.359 201.972 390.639 206.038C390.933 210.293 391.03 214.466 391.514 218.708C391.726 220.403 394.093 220.143 394.172 218.522C394.203 214.815 393.942 211.033 393.681 207.251C393.426 203.563 393.172 199.876 392.822 196.195C392.225 188.921 391.539 181.748 390.942 174.475C390.351 167.296 389.95 160.103 389.454 152.917C389.356 151.499 389.17 150.182 388.977 148.77C389.354 147.319 389.135 145.529 389.031 144.016C388.812 142.226 388.498 140.443 388.368 138.552C387.966 134.115 388.046 129.739 387.739 125.295C387.126 116.407 386.031 107.458 385.038 98.597C384.793 96.429 384.453 94.2676 383.278 92.4495C382.961 91.9966 382.643 91.5437 382.332 91.1854C382.231 91.0975 382.224 91.003 382.123 90.915Z" fill="#55E88C"/>
<path d="M367.553 143.515C367.881 152.423 369.366 161.254 370.17 170.036C370.614 175.041 370.859 179.965 371.111 184.983C371.356 189.906 371.698 194.823 371.943 199.747C372.24 205.427 372.635 211.1 372.932 216.78C372.985 217.537 374.238 217.454 374.185 216.698C373.592 206.763 372.999 196.828 372.502 186.886C371.935 177.329 371.458 167.671 370.12 158.165C369.393 153.273 368.569 148.388 368.041 143.578C368.015 143.2 367.533 143.231 367.553 143.515Z" fill="#D8E5E5"/>
<path d="M370.925 138.718C370.716 141.297 371.08 143.743 371.354 146.29C371.621 148.742 371.888 151.194 372.065 153.747C372.606 158.746 373.051 163.752 373.399 168.763C374.275 178.585 374.965 188.514 375.744 198.342C376.145 204.11 376.443 209.79 377.036 215.545C377.082 216.207 378.142 216.138 378.096 215.476C377.586 205.345 376.691 195.24 375.891 185.128C375.112 175.3 374.326 165.378 373.353 155.562C373.06 152.732 372.863 149.895 372.569 147.065C372.283 144.329 372.086 141.492 371.317 138.788C371.297 138.504 371.008 138.523 370.925 138.718Z" fill="#D8E5E5"/>
<path d="M374.771 138.069C375.378 148.193 376.563 158.28 377.363 168.391C378.157 178.408 378.751 188.343 379.255 198.379C379.559 204.154 379.767 209.935 380.072 215.709C380.125 216.465 381.378 216.383 381.326 215.627C380.407 195.454 379.489 175.281 377.414 155.184C376.82 149.429 376.129 143.679 375.253 138.037C375.137 137.76 374.751 137.785 374.771 138.069Z" fill="#D8E5E5"/>
<path d="M378.123 138.498C378.204 141.058 378.766 143.585 379.039 146.132C379.313 148.679 379.683 151.219 379.956 153.766C380.49 158.671 381.024 163.575 381.365 168.492C382.143 178.32 382.64 188.262 383.226 198.103C383.516 203.688 383.91 209.362 384.297 214.941C384.356 215.792 385.705 215.703 385.646 214.852C384.165 194.906 383.75 174.984 381.499 155.089C381.206 152.259 380.817 149.435 380.427 146.61C380.044 143.881 379.648 140.962 378.887 138.353C378.661 137.893 378.09 138.025 378.123 138.498Z" fill="#D8E5E5"/>
<path d="M382.518 140.188C382.4 142.666 382.674 145.213 382.852 147.766C383.023 150.224 383.2 152.777 383.468 155.229C383.907 160.14 384.352 165.146 384.694 170.063C385.468 179.796 386.248 189.624 386.926 199.364C387.117 202.106 387.308 204.848 387.402 207.597C387.501 209.015 387.496 210.345 387.595 211.763C387.694 213.182 387.696 214.607 387.987 216.012C388.11 216.384 388.689 216.346 388.759 215.962C389.077 213.566 388.706 211.026 388.638 208.656C388.467 206.197 388.386 203.638 388.215 201.179C387.873 196.262 387.524 191.25 387.182 186.333C386.395 176.411 385.614 166.583 384.731 156.667C384.54 153.925 384.253 151.189 383.965 148.453C383.678 145.717 383.577 142.874 382.994 140.062C382.974 139.778 382.595 139.898 382.518 140.188Z" fill="#D8E5E5"/>
<path d="M358.417 117.95C358.417 117.95 364.213 111.856 372.416 111.582M387.116 117.95C381.874 112.951 376.801 111.435 372.416 111.582M372.416 111.582V0" stroke="#0D0842" stroke-width="0.7"/>
<path d="M443.37 219.786L445.28 155.067C445.385 151.884 442.792 148.409 439.443 147.722C437.515 147.322 432.473 147.204 430.218 147.751C426.778 148.665 426.244 151.715 425.58 154.56L423.67 219.279C423.67 219.279 427.37 216.487 433.594 216.555C440.044 216.568 443.37 219.786 443.37 219.786Z" fill="#E7EFF2"/>
<path d="M423.542 220.384C423.569 219.51 423.578 218.56 423.605 217.686C423.695 216.085 423.691 214.428 423.781 212.828C423.917 210.427 423.976 208.045 424.094 205.57C424.307 200.861 424.426 196.096 424.639 191.388C424.981 182.938 425.071 159.316 425.36 154.589C425.903 146.643 442.198 145.852 444.672 154.093C444.946 154.894 444.581 167.849 444.533 170.939L444.144 184.451C443.898 190.667 443.558 196.827 443.219 202.987C443.042 205.872 442.94 208.738 442.838 211.604C442.718 214.396 442.785 217.3 442.421 220.072C442.301 220.89 443.195 221.621 443.983 221.588C444.827 221.503 445.734 220.926 445.629 220.163C445.352 217.704 445.526 215.136 445.55 212.604C445.573 210.073 445.672 207.523 445.753 204.899C445.933 199.725 446.113 194.551 446.368 189.358C446.686 181.467 447.136 173.465 446.891 165.552L447.287 153.38L448.491 112.991C448.609 110.516 447.278 108.313 445.301 107.055C444.91 106.755 444.537 106.53 444.239 106.287C443.101 105.536 441.831 104.897 440.522 104.425C437.979 103.462 435.151 102.964 432.409 103.154C429.5 103.307 426.807 104.354 425.618 107.01C425.522 107.27 425.351 107.549 425.272 107.883C424.451 109.424 424.06 111.098 423.82 112.734C423.522 114.464 423.299 116.176 423.246 117.925C423.005 121.535 422.915 125.109 422.768 128.775C422.493 136.183 422.292 143.572 422.073 150.887C421.597 165.683 421.213 180.536 420.737 195.333C420.434 203.615 420.056 211.915 419.922 220.236C419.826 222.469 423.521 222.6 423.542 220.384Z" fill="#875C1A"/>
<path d="M442.904 142.19C442.683 141.925 442.722 141.757 442.445 141.585C442.149 141.339 441.797 141.186 441.427 140.957C440.797 140.633 440.093 140.326 439.407 140.095C437.942 139.576 436.324 139.412 434.742 139.399C433.235 139.368 431.633 139.599 430.158 140.037C429.412 140.218 428.702 140.55 428.066 140.864C427.505 141.16 426.553 141.471 426.38 142.07C426.303 142.408 426.505 142.597 426.84 142.675C427.416 142.774 428.072 142.216 428.559 141.938C429.194 141.625 429.848 141.386 430.594 141.205C431.919 140.803 433.373 140.608 434.787 140.582C436.202 140.557 437.595 140.775 438.876 141.18C439.544 141.336 440.23 141.567 440.86 141.891C441.212 142.044 441.472 142.14 441.824 142.293C442.176 142.447 442.4 142.392 442.734 142.47C442.901 142.509 443.015 142.322 442.904 142.19Z" fill="#E7EFF2"/>
<path d="M444.39 112.417C444.005 111.797 443.357 111.399 442.784 110.984C442.043 110.53 441.228 110.094 440.431 109.733C438.762 109.029 436.979 108.512 435.175 108.238C432.386 107.807 428.952 108.644 426.978 110.632C426.282 111.357 427.39 112.356 428.029 111.724C429.797 109.866 432.744 109.306 435.274 109.641C436.91 109.877 438.451 110.374 440.01 110.946C440.714 111.25 441.419 111.555 442.142 111.934C442.772 112.256 443.345 112.672 444.014 112.826C444.274 112.921 444.537 112.699 444.39 112.417Z" fill="#E7EFF2"/>
<path d="M441.535 156.366C441.406 163.418 441.334 170.377 441.205 177.429C441.039 186.305 440.552 195.178 440.141 204.034C439.905 208.666 439.65 213.223 439.49 217.837C439.426 218.563 440.632 218.59 440.697 217.865C441.047 209.419 441.38 200.898 441.636 192.395C441.911 183.967 442.262 175.52 442.368 167.054C442.385 163.499 442.403 159.945 442.1 156.388C442.085 155.997 441.52 155.975 441.535 156.366Z" fill="#D8E5E5"/>
<path d="M438.334 153.92C437.937 155.909 438.141 158.069 438.064 160.059C438.081 162.107 438.079 164.079 438.021 166.145C437.978 170.257 437.954 174.444 437.837 178.575C437.677 186.818 437.366 195.097 436.885 203.338C436.574 207.988 436.356 212.695 435.893 217.381C435.847 218.181 437.223 218.247 437.268 217.447C438.136 200.909 438.927 184.389 439.078 167.864C439.082 165.576 439.069 163.212 439.073 160.923C439.078 158.634 439.291 156.216 438.767 154.054C438.827 153.645 438.413 153.586 438.334 153.92Z" fill="#D8E5E5"/>
<path d="M432.313 153.829C432.103 155.931 432.138 158.053 432.079 160.118C432.02 162.184 431.98 164.324 431.921 166.389C431.728 170.538 431.534 174.687 431.172 178.797C430.599 186.982 429.798 195.221 429.394 203.445C429.176 208.152 429.034 212.841 428.968 217.512C428.922 218.312 430.279 218.302 430.249 217.521C429.995 209.218 430.665 200.774 431.22 192.514C431.851 184.237 432.576 176.016 432.887 167.736C432.949 165.354 433.105 163.029 433.091 160.665C433.096 158.376 433.158 155.994 432.842 153.703C432.921 153.368 432.392 153.495 432.313 153.829Z" fill="#D8E5E5"/>
<path d="M435.885 153.578C435.675 155.68 435.71 157.802 435.651 159.867C435.592 161.933 435.551 164.073 435.493 166.138C435.299 170.287 435.106 174.436 434.744 178.546C434.17 186.731 433.37 194.97 432.966 203.194C432.748 207.901 432.606 212.59 432.539 217.26C432.493 218.06 433.85 218.051 433.821 217.269C433.566 208.967 434.237 200.522 434.792 192.263C435.423 183.986 436.148 175.765 436.459 167.485C436.521 165.103 436.676 162.778 436.663 160.414C436.667 158.125 436.729 155.743 436.414 153.452C436.417 153.135 435.888 153.262 435.885 153.578Z" fill="#D8E5E5"/>
<path d="M428.357 156.07C428.358 163.329 428.492 170.476 428.173 177.732C427.826 185.862 427.159 193.991 426.585 202.175C426.21 207.551 425.834 212.927 425.365 218.246C425.301 218.972 426.601 219.055 426.647 218.255C427.197 208.656 427.917 199.095 428.561 189.553C429.013 182.186 429.466 174.819 429.522 167.468C429.561 163.672 429.581 159.801 428.922 156.093C428.832 155.72 428.36 155.754 428.357 156.07Z" fill="#D8E5E5"/>
<path d="M422.599 129.15C422.928 128.743 426.912 126.925 431.848 126.35M447.598 131.95C443.445 126.534 437.106 125.737 431.848 126.35M431.848 0V126.35" stroke="#0D0842" stroke-width="0.7"/>
<path d="M506.872 151.202C506.825 147.984 508.665 145.347 511.098 145.285L516.933 145.12C519.29 145.079 521.272 147.653 521.373 150.775L522.166 194.902L523.382 194.871C523.615 193.995 523.698 193.163 523.736 192.183L521.76 82.3053C521.667 78.3733 519.337 75.1737 516.582 75.2495L509.035 75.4285C506.279 75.5043 504.044 78.7412 504.137 82.6732L506.113 192.55C506.15 193.509 506.262 194.446 506.502 195.265L507.719 195.234L506.872 151.202Z" fill="#F3D2A1"/>
<path d="M507.124 151.417C507.076 148.198 508.912 145.56 511.342 145.497L517.168 145.33C519.523 145.288 521.502 147.862 521.603 150.984L522.415 194.875L524.027 194.808L522.716 125.039C522.622 121.106 520.295 117.907 517.543 117.983L510.007 118.165C507.255 118.242 505.024 121.48 505.118 125.413L506.429 195.182L508.042 195.115L507.124 151.417Z" fill="#F3D2A1"/>
<path d="M522.302 194.182L521.081 126.655C520.989 123.287 519.062 120.617 516.632 120.68L510.803 120.847C508.447 120.888 506.556 123.622 506.572 127.011L507.793 194.538C507.793 194.538 510.393 191.436 514.909 191.249C519.727 190.974 522.302 194.182 522.302 194.182Z" fill="#E7EFF2"/>
<path d="M519.74 119.016C519.643 121.466 519.87 123.904 519.925 126.311C519.979 128.718 520.228 131.231 520.531 133.647C520.986 138.522 521.387 143.494 521.593 148.361C522.125 158.221 522.16 168.064 521.968 177.972C521.897 183.565 521.653 189.127 521.409 194.69C521.332 196.65 524.344 196.587 524.421 194.626C525.203 174.775 525.413 154.928 523.529 135.202C523.289 132.445 522.952 129.635 522.389 126.891C522.07 125.529 521.697 124.264 521.377 122.903C521.058 121.542 520.76 120.255 520.29 118.937C520.18 118.565 519.705 118.622 519.74 119.016Z" fill="#F3D2A1"/>
<path d="M504.909 78.9157C505.185 78.753 505.388 78.6122 505.686 78.524L505.664 78.4495C505.388 78.6122 505.111 78.775 504.909 78.9157C504.856 79.0123 504.834 78.9378 504.909 78.9157Z" fill="#F3B953"/>
<path d="M506.338 77.1717C504.993 77.8847 504.169 79.2545 503.96 80.7689C503.666 82.5504 503.523 84.2881 503.38 86.0258C503.031 89.8426 502.779 93.7119 502.603 97.5594C502.316 105.478 502.428 113.361 502.615 121.222C502.749 129.18 503.109 137.072 503.146 144.978C503.204 152.957 503.414 160.893 503.818 168.934C504.043 173.311 504.214 177.785 504.612 182.193C504.774 184.408 505.032 186.675 505.193 188.89C505.377 191.179 505.506 193.565 506.067 195.745C506.473 197.404 508.779 196.897 508.869 195.256C509.021 193.273 508.775 191.325 508.626 189.43C508.455 187.46 508.382 185.543 508.286 183.551C508.042 179.664 507.797 175.777 507.628 171.868C507.215 164.072 506.952 156.233 506.862 148.424C506.794 140.689 506.575 132.998 506.431 125.286C506.19 117.52 505.971 109.83 506.054 102.051C506.099 97.7575 506.316 93.4942 506.609 89.209C506.74 87.1518 507.022 85.0508 507.206 82.8973C507.257 82.2364 507.286 81.501 507.359 80.9145C507.485 80.2317 507.363 79.54 507.857 78.9931C508.693 77.9428 507.479 76.5986 506.338 77.1717Z" fill="#F3D2A1"/>
<path d="M519.263 78.218C518.95 77.418 518.361 76.781 517.718 76.2407C517.076 75.7004 516.412 75.0854 515.664 74.7387C513.901 73.9619 511.885 73.99 509.966 74.0707C508.218 74.1821 506.642 74.8913 505.529 76.3564C504.596 77.6059 503.454 79.8097 504.602 81.2553C504.859 81.5848 505.424 81.5799 505.701 81.417C506.786 80.6906 506.703 79.0111 507.531 77.9552C508.389 76.7277 509.647 76.5992 511.001 76.5233C512.429 76.4254 513.954 76.3802 515.376 77.0957C516.53 77.7278 517.56 79.046 519.02 78.7766C519.169 78.7325 519.306 78.3674 519.263 78.218Z" fill="#F3D2A1"/>
<path d="M513.461 76.6151C514.873 76.1262 516.552 77.0948 517.432 78.1327C518.572 79.499 518.84 81.521 518.968 83.3416C519.335 87.9194 519.475 92.5626 519.691 97.184C520.092 106.597 520.244 116.002 520.245 125.45C520.267 128.028 520.215 130.627 520.238 133.205C520.211 134.504 520.26 135.782 520.234 137.082C520.259 137.721 520.305 138.434 520.405 139.051C520.527 139.743 520.876 140.369 521.02 141.135C521.142 141.826 522.265 141.744 522.413 141.136C522.561 140.528 522.807 139.972 522.955 139.364C523.104 138.756 523.133 138.021 523.108 137.382C523.134 136.082 523.085 134.804 523.112 133.505C523.111 131.001 523.034 128.52 523.055 126.091C522.978 121.107 522.923 116.197 522.77 111.234C522.671 106.175 522.496 101.138 522.299 96.0266C522.223 93.5452 522.071 91.0857 521.919 88.6261C521.811 86.3154 521.703 84.0048 521.369 81.7595C521.034 79.5143 520.278 77.2293 518.522 75.718C516.809 74.3555 514.658 74.008 512.84 75.3411C512.204 75.6863 512.631 76.8551 513.461 76.6151Z" fill="#F3D2A1"/>
<path d="M522.718 127.586C522.847 126.299 522.35 124.985 521.924 123.809C521.429 122.668 520.725 121.461 519.85 120.604C517.678 118.408 514.897 118.096 512.05 118.342C510.626 118.464 509.203 118.587 507.922 119.16C506.502 119.804 505.609 121.136 505.03 122.568C503.971 124.945 502.618 129.653 505.445 131.25C505.933 131.522 506.662 131.408 506.865 130.78C507.034 130.083 507.1 129.7 507.095 129.005C507.091 128.483 507.121 127.858 507.186 127.301C507.281 126.118 507.62 125.071 508.029 123.989C508.369 123.115 508.816 122.449 509.682 122.091C510.721 121.73 511.902 121.645 512.978 121.527C514.991 121.362 516.696 121.618 518.167 123.128C519.533 124.604 520.106 126.751 521.54 128.018C521.926 128.43 522.619 128.248 522.718 127.586Z" fill="#F3D2A1"/>
<path d="M519.088 114.363C519.19 113.604 519.279 112.525 518.837 111.847C519.017 111.631 519.123 111.438 519.035 111.14C518.546 109.747 517.134 109.356 515.894 108.995C514.579 108.656 513.254 108.563 511.899 108.641C510.618 108.697 509.039 108.841 507.933 109.493C506.402 110.352 507.097 112.17 507.415 113.533C507.589 114.129 508.233 114.667 508.874 114.639C510.304 114.539 511.852 114.565 513.251 114.637C514.649 114.708 516.219 114.809 517.578 115.296C518.135 115.536 518.964 115.047 519.088 114.363Z" fill="#E7EFF2"/>
<path d="M508.937 78.6923C508.487 79.3885 508.546 80.4217 508.464 81.2536C508.425 82.2343 508.365 83.1406 508.401 84.0994C508.378 85.9645 508.398 87.9785 508.697 89.8304C508.94 91.2138 510.942 90.7931 510.969 89.4928C510.992 87.6277 510.693 85.7758 510.566 83.9545C510.476 83.092 510.439 82.1332 510.349 81.2707C510.281 80.4827 510.244 79.5239 509.853 78.749C509.646 78.3244 509.15 78.307 508.937 78.6923Z" fill="#E7EFF2"/>
<path d="M512.429 78.7746C511.514 81.2229 511.69 84.323 512.11 86.8668C512.232 87.5586 512.633 88.0882 513.354 88.0397C513.924 88.0349 514.567 87.4434 514.543 86.8041C514.397 85.473 514.229 84.0675 514.158 82.7145C514.087 81.3615 514.016 80.0085 513.72 78.7213C513.523 78.0514 512.674 78.2183 512.429 78.7746Z" fill="#E7EFF2"/>
<path d="M515.743 78.7533C515.309 80.3339 515.533 82.2077 515.519 83.8277C515.512 84.6376 515.602 85.5001 515.617 86.3845C515.631 87.2689 515.624 88.0788 516.038 88.9281C516.363 89.4797 517.279 89.5364 517.578 88.884C517.908 88.0608 517.862 87.3472 517.869 86.5372C517.854 85.6528 517.839 84.7685 517.727 83.8316C517.569 82.181 517.668 80.294 517.058 78.7749C516.763 78.0526 515.945 78.0484 515.743 78.7533Z" fill="#E7EFF2"/>
<path d="M516.842 125.945C516.756 128.151 516.961 130.514 517.047 132.751C517.111 134.913 517.25 137.053 517.314 139.215C517.464 143.613 517.712 148.065 517.862 152.463C518.215 161.164 518.17 169.899 518.351 178.569C518.428 183.554 518.483 188.464 518.463 193.397C518.468 194.526 520.184 194.514 520.179 193.385C520.127 184.597 519.978 175.756 519.656 166.885C519.506 162.486 519.259 158.035 519.109 153.637C518.959 149.238 518.809 144.84 518.561 140.389C518.41 137.929 518.258 135.469 518.106 133.01C517.976 130.624 517.9 128.143 517.544 125.823C517.487 125.355 516.808 125.551 516.842 125.945Z" fill="#D8E5E5"/>
<path d="M513.998 122.912C514.482 140.944 514.965 158.976 515.276 176.977C515.375 182.036 515.474 187.095 515.573 192.155C515.578 193.284 517.272 193.197 517.289 192.143C516.881 174.089 516.247 156.101 515.515 138.06C515.319 132.949 515.069 127.933 514.797 122.843C514.665 122.396 513.942 122.444 513.998 122.912Z" fill="#D8E5E5"/>
<path d="M511.036 124.369C510.506 126.46 510.787 128.802 510.829 130.889C510.893 133.051 510.957 135.213 511.021 137.376C511.117 141.87 511.289 146.343 511.386 150.838C511.61 159.657 511.781 168.572 512.006 177.391C512.105 182.45 512.182 187.435 512.281 192.494C512.309 193.698 514.1 193.664 514.073 192.46C513.753 174.705 513.185 156.94 512.443 139.145C512.367 136.663 512.215 134.203 512.139 131.722C512.09 130.444 512.063 129.24 511.938 127.984C511.813 126.728 511.786 125.524 511.435 124.334C511.391 124.185 511.143 124.176 511.036 124.369Z" fill="#D8E5E5"/>
<path d="M508.872 128.008C508.78 129.085 508.644 130.013 508.627 131.067C508.61 132.122 508.518 133.199 508.523 134.328C508.49 136.437 508.457 138.547 508.423 140.656C508.41 144.779 508.375 148.827 508.513 152.906C508.659 161.182 508.979 169.489 509.374 177.774C509.536 182.492 509.796 187.263 510.109 191.937C510.124 192.821 511.516 192.822 511.404 191.885C510.366 175.306 510.073 158.754 509.683 142.149C509.628 139.742 509.596 137.41 509.466 135.024C509.439 133.821 509.412 132.617 509.406 131.488C509.379 130.285 509.276 129.103 509.174 127.921C509.152 127.847 508.904 127.838 508.872 128.008Z" fill="#D8E5E5"/>
<path d="M502.254 101.5C502.254 101.5 506.474 98.2759 511.849 97.82M522.349 101.5C518.887 98.3039 515.15 97.5399 511.849 97.82M511.849 0.699951V97.82" stroke="#0D0842" stroke-width="0.7"/>
<path d="M567.646 218.625L561.346 145.555C561.002 141.97 560.897 134.948 564.302 134.611L575.474 133.626C578.879 133.289 582.302 140.074 582.646 143.659L588.371 216.675C588.371 216.675 584.269 213.832 577.729 214.298C570.904 214.783 567.646 218.625 567.646 218.625Z" fill="#E7EFF2"/>
<path d="M578.823 90.9148C576.254 88.244 571.071 86.4206 566.9 86.8067C563.488 87.1399 555.767 91.3841 555.091 95.4215C554.845 96.0087 554.708 96.7783 554.652 97.3523C554.471 98.8849 554.481 100.404 554.402 102.025C554.43 106.583 554.648 111.128 554.962 115.667C555.532 125.318 556.482 134.942 557.053 144.593C557.653 153.291 558.45 162.071 559.335 170.75C560.207 179.24 560.984 187.736 561.761 196.232C562.169 200.764 562.761 205.188 563.454 209.7C563.634 210.922 563.807 212.05 564.082 213.266C564.088 213.361 564.101 213.55 564.108 213.644C564.264 215.914 564.516 218.176 565.331 220.305C565.681 221.23 566.548 221.36 567.452 220.631C567.812 220.321 567.891 218.701 567.865 218.323L561.636 147.408C561.571 146.462 561.499 145.422 561.434 144.477C561.503 141.337 564.536 138.275 569.742 136.296C575.6 134.082 580.321 138.883 581.427 141.086C581.754 143.059 582.087 145.125 582.414 147.098L583.651 160.882C583.664 161.071 583.671 161.166 583.684 161.355C583.932 164.948 584.186 168.635 584.529 172.222C585.12 179.401 585.806 186.573 586.397 193.753C586.772 197.812 587.059 201.972 587.34 206.038C587.633 210.292 587.73 214.466 588.214 218.707C588.426 220.403 590.794 220.142 590.873 218.522C590.903 214.814 590.642 211.032 590.381 207.25C590.127 203.563 589.872 199.875 589.523 196.195C588.925 188.921 588.24 181.748 587.642 174.474C587.052 167.295 586.651 160.103 586.155 152.917C586.057 151.499 585.871 150.182 585.678 148.77C586.055 147.319 585.836 145.529 585.731 144.016C585.512 142.226 585.199 140.443 585.068 138.552C584.666 134.115 584.746 129.739 584.44 125.295C583.826 116.407 582.732 107.458 581.739 98.5968C581.494 96.4288 581.154 94.2674 579.979 92.4493C579.661 91.9964 579.344 91.5435 579.033 91.1852C578.931 91.0973 578.925 91.0027 578.823 90.9148Z" fill="#55E88C"/>
<path d="M564.254 143.515C564.582 152.422 566.067 161.254 566.871 170.035C567.315 175.041 567.56 179.964 567.812 184.982C568.057 189.906 568.399 194.823 568.644 199.747C568.942 205.427 569.336 211.1 569.633 216.78C569.686 217.537 570.939 217.454 570.886 216.698C570.293 206.762 569.7 196.827 569.203 186.886C568.636 177.329 568.159 167.671 566.821 158.165C566.094 153.273 565.27 148.387 564.742 143.578C564.716 143.199 564.234 143.231 564.254 143.515Z" fill="#D8E5E5"/>
<path d="M567.625 138.718C567.417 141.297 567.78 143.743 568.054 146.289C568.321 148.742 568.588 151.194 568.766 153.747C569.307 158.746 569.751 163.751 570.099 168.763C570.975 178.585 571.665 188.513 572.445 198.341C572.845 204.11 573.143 209.79 573.737 215.545C573.783 216.207 574.843 216.137 574.797 215.475C574.287 205.345 573.391 195.239 572.592 185.128C571.812 175.3 571.026 165.377 570.054 155.562C569.76 152.732 569.563 149.895 569.27 147.064C568.983 144.328 568.786 141.492 568.017 138.787C567.997 138.504 567.708 138.523 567.625 138.718Z" fill="#D8E5E5"/>
<path d="M571.471 138.069C572.078 148.193 573.264 158.28 574.063 168.391C574.857 178.408 575.451 188.343 575.955 198.379C576.259 204.154 576.468 209.935 576.772 215.709C576.825 216.465 578.078 216.383 578.026 215.627C577.108 195.454 576.189 175.281 574.114 155.184C573.52 149.429 572.83 143.679 571.953 138.037C571.837 137.76 571.451 137.785 571.471 138.069Z" fill="#D8E5E5"/>
<path d="M574.823 138.498C574.904 141.058 575.466 143.585 575.739 146.132C576.013 148.679 576.383 151.219 576.656 153.766C577.19 158.67 577.724 163.575 578.065 168.492C578.843 178.32 579.34 188.262 579.926 198.102C580.216 203.688 580.61 209.361 580.997 214.941C581.056 215.792 582.405 215.703 582.346 214.851C580.865 194.905 580.45 174.984 578.199 155.089C577.906 152.258 577.517 149.434 577.127 146.61C576.744 143.881 576.348 140.962 575.587 138.353C575.361 137.892 574.79 138.025 574.823 138.498Z" fill="#D8E5E5"/>
<path d="M579.219 140.188C579.101 142.665 579.375 145.212 579.552 147.765C579.724 150.224 579.901 152.777 580.169 155.229C580.607 160.14 581.052 165.145 581.394 170.062C582.168 179.796 582.949 189.624 583.627 199.363C583.818 202.106 584.008 204.848 584.103 207.596C584.201 209.015 584.197 210.345 584.296 211.763C584.394 213.182 584.397 214.606 584.688 216.012C584.811 216.384 585.39 216.346 585.46 215.962C585.778 213.566 585.407 211.026 585.339 208.655C585.168 206.197 585.087 203.637 584.916 201.179C584.574 196.262 584.225 191.25 583.883 186.333C583.096 176.411 582.315 166.583 581.431 156.666C581.241 153.924 580.953 151.188 580.666 148.452C580.379 145.717 580.278 142.873 579.695 140.062C579.675 139.778 579.296 139.898 579.219 140.188Z" fill="#D8E5E5"/>
<path d="M555.116 117.95C555.116 117.95 560.913 111.856 569.116 111.582M583.816 117.95C578.574 112.951 573.501 111.435 569.116 111.582M569.116 111.582V0" stroke="#0D0842" stroke-width="0.7"/>
</svg>
