<svg width="155" height="36" viewBox="0 0 155 36" fill="none" xmlns="http://www.w3.org/2000/svg">
<path d="M8.90625 35.4773C7.69176 35.4773 6.64773 35.321 5.77415 35.0085C4.90057 34.7031 4.17259 34.2983 3.5902 33.794C3.01491 33.2969 2.55682 32.7642 2.21591 32.196L4.21875 30.7898C4.44602 31.0881 4.73366 31.429 5.08168 31.8125C5.42969 32.2031 5.90554 32.5405 6.50923 32.8246C7.12003 33.1158 7.91903 33.2614 8.90625 33.2614C10.2273 33.2614 11.3175 32.9418 12.1768 32.3026C13.0362 31.6634 13.4659 30.6619 13.4659 29.2983V25.9744H13.2528C13.0682 26.2727 12.8054 26.642 12.4645 27.0824C12.1307 27.5156 11.6477 27.9027 11.0156 28.2436C10.3906 28.5774 9.54545 28.7443 8.48011 28.7443C7.15909 28.7443 5.97301 28.4318 4.92188 27.8068C3.87784 27.1818 3.05043 26.2727 2.43963 25.0795C1.83594 23.8864 1.53409 22.4375 1.53409 20.733C1.53409 19.0568 1.82884 17.5973 2.41832 16.3544C3.00781 15.1044 3.82813 14.1385 4.87926 13.4567C5.9304 12.7678 7.14489 12.4233 8.52273 12.4233C9.58807 12.4233 10.4332 12.6009 11.0582 12.956C11.6903 13.304 12.1733 13.7017 12.5071 14.1491C12.848 14.5895 13.1108 14.9517 13.2955 15.2358H13.5511V12.6364H15.9801V29.4688C15.9801 30.875 15.6605 32.0185 15.0213 32.8991C14.3892 33.7869 13.5369 34.4368 12.4645 34.8487C11.3991 35.2678 10.2131 35.4773 8.90625 35.4773ZM8.82102 26.4858C9.82955 26.4858 10.6818 26.255 11.3778 25.7933C12.0739 25.3317 12.603 24.6676 12.9652 23.8011C13.3274 22.9347 13.5085 21.8977 13.5085 20.6903C13.5085 19.5114 13.331 18.4709 12.9759 17.5689C12.6207 16.6669 12.0952 15.9602 11.3991 15.4489C10.7031 14.9375 9.84375 14.6818 8.82102 14.6818C7.75568 14.6818 6.8679 14.9517 6.15767 15.4915C5.45455 16.0312 4.92543 16.7557 4.57031 17.6648C4.2223 18.5739 4.0483 19.5824 4.0483 20.6903C4.0483 21.8267 4.22585 22.8317 4.58097 23.7053C4.94318 24.5717 5.47585 25.2536 6.17898 25.7507C6.8892 26.2408 7.76989 26.4858 8.82102 26.4858ZM27.2301 29.3409C25.7528 29.3409 24.4567 28.9893 23.3416 28.2862C22.2337 27.5831 21.3672 26.5994 20.7422 25.3352C20.1243 24.071 19.8153 22.5937 19.8153 20.9034C19.8153 19.1989 20.1243 17.7109 20.7422 16.4396C21.3672 15.1683 22.2337 14.1811 23.3416 13.478C24.4567 12.7749 25.7528 12.4233 27.2301 12.4233C28.7074 12.4233 30 12.7749 31.108 13.478C32.223 14.1811 33.0895 15.1683 33.7074 16.4396C34.3324 17.7109 34.6449 19.1989 34.6449 20.9034C34.6449 22.5937 34.3324 24.071 33.7074 25.3352C33.0895 26.5994 32.223 27.5831 31.108 28.2862C30 28.9893 28.7074 29.3409 27.2301 29.3409ZM27.2301 27.0824C28.3523 27.0824 29.2756 26.7947 30 26.2195C30.7244 25.6442 31.2607 24.8878 31.6087 23.9503C31.9567 23.0128 32.1307 21.9972 32.1307 20.9034C32.1307 19.8097 31.9567 18.7905 31.6087 17.8459C31.2607 16.9013 30.7244 16.1378 30 15.5554C29.2756 14.973 28.3523 14.6818 27.2301 14.6818C26.108 14.6818 25.1847 14.973 24.4602 15.5554C23.7358 16.1378 23.1996 16.9013 22.8516 17.8459C22.5036 18.7905 22.3295 19.8097 22.3295 20.9034C22.3295 21.9972 22.5036 23.0128 22.8516 23.9503C23.1996 24.8878 23.7358 25.6442 24.4602 26.2195C25.1847 26.7947 26.108 27.0824 27.2301 27.0824ZM45.1305 29.3409C43.6532 29.3409 42.3571 28.9893 41.242 28.2862C40.1341 27.5831 39.2676 26.5994 38.6426 25.3352C38.0247 24.071 37.7157 22.5937 37.7157 20.9034C37.7157 19.1989 38.0247 17.7109 38.6426 16.4396C39.2676 15.1683 40.1341 14.1811 41.242 13.478C42.3571 12.7749 43.6532 12.4233 45.1305 12.4233C46.6078 12.4233 47.9004 12.7749 49.0083 13.478C50.1234 14.1811 50.9899 15.1683 51.6078 16.4396C52.2328 17.7109 52.5453 19.1989 52.5453 20.9034C52.5453 22.5937 52.2328 24.071 51.6078 25.3352C50.9899 26.5994 50.1234 27.5831 49.0083 28.2862C47.9004 28.9893 46.6078 29.3409 45.1305 29.3409ZM45.1305 27.0824C46.2527 27.0824 47.176 26.7947 47.9004 26.2195C48.6248 25.6442 49.161 24.8878 49.5091 23.9503C49.8571 23.0128 50.0311 21.9972 50.0311 20.9034C50.0311 19.8097 49.8571 18.7905 49.5091 17.8459C49.161 16.9013 48.6248 16.1378 47.9004 15.5554C47.176 14.973 46.2527 14.6818 45.1305 14.6818C44.0083 14.6818 43.085 14.973 42.3606 15.5554C41.6362 16.1378 41.1 16.9013 40.752 17.8459C40.4039 18.7905 40.2299 19.8097 40.2299 20.9034C40.2299 21.9972 40.4039 23.0128 40.752 23.9503C41.1 24.8878 41.6362 25.6442 42.3606 26.2195C43.085 26.7947 44.0083 27.0824 45.1305 27.0824ZM62.5621 29.3409C61.1985 29.3409 59.9947 28.9964 58.9506 28.3075C57.9066 27.6115 57.0898 26.6314 56.5004 25.3672C55.9109 24.0959 55.6161 22.5938 55.6161 20.8608C55.6161 19.142 55.9109 17.6506 56.5004 16.3864C57.0898 15.1222 57.9102 14.1456 58.9613 13.4567C60.0124 12.7678 61.2269 12.4233 62.6048 12.4233C63.6701 12.4233 64.5117 12.6009 65.1296 12.956C65.7546 13.304 66.2305 13.7017 66.5572 14.1491C66.891 14.5895 67.1502 14.9517 67.3349 15.2358H67.5479V7.18182H70.0621V29H67.6332V26.4858H67.3349C67.1502 26.7841 66.8874 27.1605 66.5465 27.6151C66.2056 28.0625 65.7191 28.4638 65.087 28.8189C64.4549 29.1669 63.6133 29.3409 62.5621 29.3409ZM62.9031 27.0824C63.9116 27.0824 64.7638 26.8196 65.4599 26.294C66.1559 25.7614 66.685 25.0263 67.0472 24.0888C67.4094 23.1442 67.5906 22.054 67.5906 20.8182C67.5906 19.5966 67.413 18.5277 67.0579 17.6115C66.7028 16.6882 66.1772 15.9709 65.4812 15.4595C64.7852 14.9411 63.9258 14.6818 62.9031 14.6818C61.8377 14.6818 60.9499 14.9553 60.2397 15.5021C59.5366 16.0419 59.0075 16.777 58.6523 17.7074C58.3043 18.6307 58.1303 19.6676 58.1303 20.8182C58.1303 21.983 58.3079 23.0412 58.663 23.9929C59.0252 24.9375 59.5579 25.6903 60.261 26.2514C60.9712 26.8054 61.8519 27.0824 62.9031 27.0824Z" fill="#875C1A" fill-opacity="0.3"/>
<path d="M74.6964 29V12.6364H78.4357V15.3636H78.6062C78.9045 14.419 79.4158 13.6911 80.1403 13.1797C80.8718 12.6612 81.7063 12.402 82.6438 12.402C82.8569 12.402 83.0948 12.4126 83.3576 12.4339C83.6275 12.4482 83.8512 12.473 84.0288 12.5085V16.0561C83.8654 15.9993 83.6062 15.9496 83.2511 15.907C82.9031 15.8572 82.5657 15.8324 82.239 15.8324C81.5359 15.8324 80.9038 15.9851 80.3427 16.2905C79.7887 16.5888 79.3519 17.0043 79.0323 17.5369C78.7127 18.0696 78.5529 18.6839 78.5529 19.38V29H74.6964ZM93.1614 29.3196C91.5208 29.3196 90.1039 28.9787 88.9107 28.2969C87.7246 27.608 86.812 26.6349 86.1728 25.3778C85.5336 24.1136 85.214 22.6257 85.214 20.9141C85.214 19.2308 85.5336 17.7536 86.1728 16.4822C86.8191 15.2038 87.7211 14.2095 88.8787 13.4993C90.0364 12.782 91.3965 12.4233 92.959 12.4233C93.9675 12.4233 94.9192 12.5866 95.8141 12.9134C96.7161 13.233 97.5115 13.7301 98.2005 14.4048C98.8965 15.0795 99.4434 15.9389 99.8411 16.983C100.239 18.0199 100.438 19.2557 100.438 20.6903V21.8729H87.025V19.2734H96.7409C96.7338 18.5348 96.574 17.8778 96.2615 17.3026C95.949 16.7202 95.5123 16.2621 94.9512 15.9283C94.3972 15.5945 93.7509 15.4276 93.0123 15.4276C92.2239 15.4276 91.5314 15.6193 90.9348 16.0028C90.3382 16.3793 89.873 16.8764 89.5392 17.4943C89.2125 18.1051 89.0456 18.7763 89.0385 19.5078V21.777C89.0385 22.7287 89.2125 23.5455 89.5605 24.2273C89.9086 24.902 90.3951 25.4205 91.0201 25.7827C91.6451 26.1378 92.3766 26.3153 93.2147 26.3153C93.7757 26.3153 94.2836 26.2372 94.7381 26.081C95.1926 25.9176 95.5868 25.6797 95.9206 25.3672C96.2544 25.0547 96.5066 24.6676 96.677 24.206L100.278 24.6108C100.051 25.5625 99.6174 26.3935 98.9782 27.1037C98.3461 27.8068 97.5364 28.3537 96.5492 28.7443C95.562 29.1278 94.4327 29.3196 93.1614 29.3196ZM108.409 29.3303C107.372 29.3303 106.438 29.1456 105.607 28.7763C104.783 28.3999 104.13 27.8459 103.647 27.1143C103.171 26.3828 102.933 25.4808 102.933 24.4084C102.933 23.4851 103.104 22.7216 103.445 22.1179C103.786 21.5142 104.251 21.0312 104.84 20.669C105.43 20.3068 106.094 20.0334 106.832 19.8487C107.578 19.657 108.349 19.5185 109.144 19.4332C110.103 19.3338 110.881 19.245 111.477 19.1669C112.074 19.0817 112.507 18.9538 112.777 18.7834C113.054 18.6058 113.192 18.3324 113.192 17.9631V17.8991C113.192 17.0966 112.955 16.4751 112.479 16.0348C112.003 15.5945 111.317 15.3743 110.423 15.3743C109.478 15.3743 108.729 15.5803 108.175 15.9922C107.628 16.4041 107.259 16.8906 107.067 17.4517L103.466 16.9403C103.75 15.946 104.219 15.1151 104.872 14.4474C105.526 13.7727 106.325 13.2685 107.269 12.9347C108.214 12.5938 109.258 12.4233 110.401 12.4233C111.19 12.4233 111.974 12.5156 112.756 12.7003C113.537 12.8849 114.251 13.1903 114.897 13.6165C115.543 14.0355 116.062 14.6072 116.452 15.3317C116.85 16.0561 117.049 16.9616 117.049 18.0483V29H113.342V26.7521H113.214C112.979 27.2067 112.649 27.6328 112.223 28.0305C111.804 28.4212 111.275 28.7372 110.636 28.9787C110.004 29.2131 109.261 29.3303 108.409 29.3303ZM109.411 26.4964C110.185 26.4964 110.856 26.3437 111.424 26.0384C111.992 25.7259 112.429 25.3139 112.734 24.8026C113.047 24.2912 113.203 23.7337 113.203 23.13V21.2017C113.082 21.3011 112.876 21.3935 112.585 21.4787C112.301 21.5639 111.982 21.6385 111.626 21.7024C111.271 21.7663 110.92 21.8232 110.572 21.8729C110.224 21.9226 109.922 21.9652 109.666 22.0007C109.091 22.0788 108.576 22.2067 108.121 22.3842C107.667 22.5618 107.308 22.8104 107.045 23.13C106.783 23.4425 106.651 23.8473 106.651 24.3445C106.651 25.0547 106.911 25.5909 107.429 25.9531C107.947 26.3153 108.608 26.4964 109.411 26.4964ZM126.999 29.2876C125.714 29.2876 124.563 28.9574 123.548 28.2969C122.532 27.6364 121.729 26.6776 121.14 25.4205C120.55 24.1634 120.256 22.6364 120.256 20.8395C120.256 19.0213 120.554 17.4872 121.151 16.2372C121.754 14.9801 122.567 14.032 123.59 13.3928C124.613 12.7464 125.753 12.4233 127.01 12.4233C127.969 12.4233 128.757 12.5866 129.375 12.9134C129.993 13.233 130.483 13.62 130.845 14.0746C131.207 14.522 131.488 14.9446 131.687 15.3423H131.847V7.18182H135.714V29H131.921V26.4219H131.687C131.488 26.8196 131.2 27.2422 130.824 27.6896C130.447 28.13 129.95 28.5064 129.332 28.8189C128.714 29.1314 127.937 29.2876 126.999 29.2876ZM128.075 26.1236C128.892 26.1236 129.588 25.9034 130.163 25.4631C130.739 25.0156 131.175 24.3942 131.474 23.5987C131.772 22.8033 131.921 21.8764 131.921 20.8182C131.921 19.7599 131.772 18.8402 131.474 18.0589C131.183 17.2777 130.749 16.6705 130.174 16.2372C129.606 15.804 128.906 15.5874 128.075 15.5874C127.216 15.5874 126.499 15.8111 125.923 16.2585C125.348 16.706 124.915 17.3239 124.624 18.1122C124.332 18.9006 124.187 19.8026 124.187 20.8182C124.187 21.8409 124.332 22.7536 124.624 23.5561C124.922 24.3516 125.359 24.9801 125.934 25.4418C126.516 25.8963 127.23 26.1236 128.075 26.1236ZM152.757 16.9616L149.241 17.3452C149.142 16.9901 148.968 16.6562 148.719 16.3438C148.477 16.0312 148.151 15.7791 147.739 15.5874C147.327 15.3956 146.823 15.2997 146.226 15.2997C145.423 15.2997 144.749 15.4737 144.202 15.8217C143.662 16.1697 143.396 16.6207 143.403 17.1747C143.396 17.6506 143.57 18.0376 143.925 18.3359C144.287 18.6342 144.884 18.8793 145.715 19.071L148.506 19.6676C150.054 20.0014 151.205 20.5305 151.958 21.255C152.718 21.9794 153.101 22.9276 153.108 24.0994C153.101 25.1293 152.799 26.0384 152.203 26.8267C151.613 27.608 150.793 28.2187 149.742 28.6591C148.691 29.0994 147.483 29.3196 146.119 29.3196C144.117 29.3196 142.504 28.9006 141.283 28.0625C140.061 27.2173 139.333 26.0419 139.099 24.5362L142.86 24.174C143.03 24.9126 143.392 25.4702 143.946 25.8466C144.5 26.223 145.221 26.4112 146.109 26.4112C147.025 26.4112 147.76 26.223 148.314 25.8466C148.875 25.4702 149.156 25.005 149.156 24.451C149.156 23.9822 148.975 23.5952 148.612 23.2898C148.257 22.9844 147.703 22.75 146.95 22.5866L144.159 22.0007C142.59 21.674 141.428 21.1236 140.676 20.3494C139.923 19.5682 139.55 18.581 139.557 17.3878C139.55 16.3793 139.823 15.5057 140.377 14.767C140.938 14.0213 141.716 13.446 142.71 13.0412C143.712 12.6293 144.866 12.4233 146.173 12.4233C148.09 12.4233 149.6 12.8317 150.7 13.6484C151.808 14.4652 152.494 15.5696 152.757 16.9616Z" fill="#875C1A"/>
</svg>
